<svg width="221" height="200" viewBox="0 0 221 200" fill="none" xmlns="http://www.w3.org/2000/svg">
<rect y="84" width="220.076" height="42" rx="10" fill="#EFF6FF"/>
<path d="M10 95.0794C10 93.6668 11.1451 92.5217 12.5577 92.5217H26.8932C28.3058 92.5217 29.4509 93.6668 29.4509 95.0794V103.488C29.4509 104.686 28.6193 105.724 27.4501 105.985L13.1145 109.183C11.5167 109.539 10 108.323 10 106.686V95.0794Z" fill="#09090B"/>
<rect x="26.5938" y="97.3627" width="1.27883" height="3.83649" rx="0.639416" fill="white"/>
<rect x="24.0345" y="97.3627" width="1.27883" height="3.83649" rx="0.639416" fill="white"/>
<path d="M40.969 106.334C40.969 104.921 39.8239 103.776 38.4113 103.776H28.1707C26.7581 103.776 25.613 104.921 25.613 106.334V112.002C25.613 113.2 26.4446 114.238 27.6139 114.499L37.8545 116.783C39.4523 117.139 40.969 115.924 40.969 114.287V106.334Z" fill="#60A5FA"/>
<rect width="1.02306" height="2.81343" rx="0.511532" transform="matrix(-1 0 0 1 28.4276 107.868)" fill="#EFF6FF"/>
<rect width="1.02306" height="2.81343" rx="0.511532" transform="matrix(-1 0 0 1 30.4749 107.868)" fill="#EFF6FF"/>
<path d="M33.8014 101.372L32.0101 100.205" stroke="#60A5FA" stroke-width="0.532493" stroke-linecap="round"/>
<path d="M32.0105 97.823L33.8018 96.6562" stroke="#60A5FA" stroke-width="0.532493" stroke-linecap="round"/>
<path d="M32.0105 97.823L33.8018 96.6562" stroke="#60A5FA" stroke-width="0.532493" stroke-linecap="round"/>
<path d="M32.0104 99.0211H33.7865" stroke="#60A5FA" stroke-width="0.532493" stroke-linecap="round"/>
<mask id="path-12-outside-1_1022_5830" maskUnits="userSpaceOnUse" x="44.969" y="93" width="165" height="21" fill="black">
<rect fill="white" x="44.969" y="93" width="165" height="21"/>
<path d="M57.739 94.0168L64.2803 113H60.3288L58.9938 108.968H51.7583L50.3967 113H46.4185L53.1467 94.0168H57.739ZM52.586 106.218H58.1128L55.336 97.461L52.586 106.218ZM76.7876 109.262L77.6954 111.959C77.1792 112.386 76.5118 112.724 75.693 112.973C74.8742 113.222 73.9219 113.347 72.8362 113.347C70.6112 113.347 68.8936 112.822 67.6832 111.772C66.4906 110.704 65.8943 109.102 65.8943 106.966V105.818C65.8943 104.501 66.0901 103.424 66.4817 102.587C66.8911 101.751 67.4251 101.092 68.0837 100.612C68.7245 100.131 69.4631 99.8017 70.2997 99.6237C71.1363 99.4457 71.9907 99.3567 72.8629 99.3567C74.091 99.3567 75.0522 99.4902 75.7464 99.7572C76.4406 100.024 77.0546 100.336 77.5886 100.692L76.7075 103.415C76.1024 103.112 75.4794 102.881 74.8386 102.721C74.2156 102.561 73.557 102.48 72.8629 102.48C71.6881 102.48 70.8782 102.845 70.4332 103.575C70.006 104.287 69.7924 105.231 69.7924 106.405C69.7924 107.74 70.0416 108.719 70.54 109.342C71.0384 109.947 71.8038 110.25 72.8362 110.25C73.4591 110.25 74.0999 110.188 74.7585 110.063C75.4171 109.921 76.0935 109.654 76.7876 109.262ZM88.6513 102.667H85.661V109.396C85.661 109.734 85.7322 109.965 85.8746 110.09C86.017 110.214 86.2128 110.277 86.462 110.277C86.6934 110.277 86.9514 110.232 87.2362 110.143C87.5388 110.054 87.8503 109.921 88.1707 109.743L89.0785 112.012C88.7225 112.368 88.1885 112.68 87.4765 112.947C86.7823 113.214 86.0704 113.347 85.3406 113.347C84.0234 113.347 83.1067 113.036 82.5906 112.413C82.0744 111.772 81.8163 110.891 81.8163 109.769V102.667H79.707V99.6237H81.8163V95.2717L85.661 94.5241V99.6237H88.6513V102.667ZM97.5263 110.277C97.7577 110.277 98.0158 110.232 98.3006 110.143C98.5854 110.054 98.888 109.921 99.2084 109.743L100.116 112.012C99.7601 112.368 99.2351 112.68 98.5409 112.947C97.8467 113.214 97.1347 113.347 96.4049 113.347C95.0878 113.347 94.1711 113.036 93.6549 112.413C93.1387 111.772 92.8806 110.891 92.8806 109.769V102.774H91.4923V99.8106H96.7787V109.396C96.7787 109.734 96.841 109.965 96.9656 110.09C97.0902 110.214 97.2771 110.277 97.5263 110.277ZM96.7787 97.5411H92.6136V93.7231H96.7787V97.5411ZM108.421 99.3567C110.45 99.3567 112.07 99.9174 113.28 101.039C114.49 102.16 115.096 103.922 115.096 106.325C115.096 108.621 114.517 110.366 113.36 111.558C112.221 112.751 110.575 113.347 108.421 113.347C106.249 113.347 104.585 112.751 103.428 111.558C102.289 110.366 101.719 108.621 101.719 106.325C101.719 103.922 102.325 102.16 103.535 101.039C104.763 99.9174 106.392 99.3567 108.421 99.3567ZM105.671 106.325C105.671 107.607 105.867 108.586 106.258 109.262C106.668 109.921 107.388 110.25 108.421 110.25C109.435 110.25 110.147 109.921 110.557 109.262C110.966 108.586 111.171 107.607 111.171 106.325C111.171 104.99 110.966 104.02 110.557 103.415C110.165 102.792 109.462 102.48 108.448 102.48C107.397 102.48 106.668 102.792 106.258 103.415C105.867 104.02 105.671 104.99 105.671 106.325ZM130.463 113H126.565V104.109C126.565 103.54 126.458 103.121 126.245 102.854C126.049 102.569 125.72 102.427 125.257 102.427C124.687 102.427 124.082 102.587 123.441 102.908C122.801 103.21 122.293 103.557 121.92 103.949V113H118.022V99.8106H121.599L121.813 100.745C122.293 100.371 122.845 100.051 123.468 99.7839C124.091 99.4991 124.857 99.3567 125.764 99.3567C127.331 99.3567 128.505 99.6949 129.289 100.371C130.072 101.048 130.463 102.071 130.463 103.442V113ZM141.129 97.7013C141.129 96.3308 141.432 95.3785 142.037 94.8445C142.66 94.2927 143.656 94.0168 145.027 94.0168H148.364C150.981 94.0168 152.805 94.5419 153.838 95.5921C154.888 96.6245 155.413 98.1552 155.413 100.184C155.413 102.498 154.835 104.109 153.678 105.017C152.521 105.925 150.741 106.379 148.338 106.379H145.08V113H141.129V97.7013ZM148.017 97.0605H146.362C145.846 97.0605 145.499 97.1673 145.321 97.3809C145.161 97.5767 145.08 97.8793 145.08 98.2887V103.308H147.964C149.103 103.308 149.957 103.068 150.527 102.587C151.097 102.107 151.381 101.306 151.381 100.184C151.381 99.0452 151.097 98.2442 150.527 97.7814C149.975 97.3008 149.139 97.0605 148.017 97.0605ZM164.505 99.3567C166.534 99.3567 168.154 99.9174 169.364 101.039C170.575 102.16 171.18 103.922 171.18 106.325C171.18 108.621 170.601 110.366 169.444 111.558C168.305 112.751 166.659 113.347 164.505 113.347C162.333 113.347 160.669 112.751 159.512 111.558C158.373 110.366 157.803 108.621 157.803 106.325C157.803 103.922 158.409 102.16 159.619 101.039C160.847 99.9174 162.476 99.3567 164.505 99.3567ZM161.755 106.325C161.755 107.607 161.951 108.586 162.342 109.262C162.752 109.921 163.473 110.25 164.505 110.25C165.52 110.25 166.231 109.921 166.641 109.262C167.05 108.586 167.255 107.607 167.255 106.325C167.255 104.99 167.05 104.02 166.641 103.415C166.249 102.792 165.546 102.48 164.532 102.48C163.481 102.48 162.752 102.792 162.342 103.415C161.951 104.02 161.755 104.99 161.755 106.325ZM179.606 110.277C179.837 110.277 180.095 110.232 180.38 110.143C180.665 110.054 180.967 109.921 181.288 109.743L182.196 112.012C181.84 112.368 181.314 112.68 180.62 112.947C179.926 113.214 179.214 113.347 178.484 113.347C177.167 113.347 176.25 113.036 175.734 112.413C175.218 111.772 174.96 110.891 174.96 109.769V102.774H173.572V99.8106H178.858V109.396C178.858 109.734 178.92 109.965 179.045 110.09C179.17 110.214 179.356 110.277 179.606 110.277ZM178.858 97.5411H174.693V93.7231H178.858V97.5411ZM196.508 113H192.609V104.109C192.609 103.54 192.503 103.121 192.289 102.854C192.093 102.569 191.764 102.427 191.301 102.427C190.732 102.427 190.126 102.587 189.486 102.908C188.845 103.21 188.338 103.557 187.964 103.949V113H184.066V99.8106H187.643L187.857 100.745C188.338 100.371 188.889 100.051 189.512 99.7839C190.135 99.4991 190.901 99.3567 191.808 99.3567C193.375 99.3567 194.55 99.6949 195.333 100.371C196.116 101.048 196.508 102.071 196.508 103.442V113ZM208.12 102.667H205.13V109.396C205.13 109.734 205.201 109.965 205.343 110.09C205.486 110.214 205.682 110.277 205.931 110.277C206.162 110.277 206.42 110.232 206.705 110.143C207.008 110.054 207.319 109.921 207.639 109.743L208.547 112.012C208.191 112.368 207.657 112.68 206.945 112.947C206.251 113.214 205.539 113.347 204.809 113.347C203.492 113.347 202.576 113.036 202.059 112.413C201.543 111.772 201.285 110.891 201.285 109.769V102.667H199.176V99.6237H201.285V95.2717L205.13 94.5241V99.6237H208.12V102.667Z"/>
</mask>
<path d="M57.739 94.0168L64.2803 113H60.3288L58.9938 108.968H51.7583L50.3967 113H46.4185L53.1467 94.0168H57.739ZM52.586 106.218H58.1128L55.336 97.461L52.586 106.218ZM76.7876 109.262L77.6954 111.959C77.1792 112.386 76.5118 112.724 75.693 112.973C74.8742 113.222 73.9219 113.347 72.8362 113.347C70.6112 113.347 68.8936 112.822 67.6832 111.772C66.4906 110.704 65.8943 109.102 65.8943 106.966V105.818C65.8943 104.501 66.0901 103.424 66.4817 102.587C66.8911 101.751 67.4251 101.092 68.0837 100.612C68.7245 100.131 69.4631 99.8017 70.2997 99.6237C71.1363 99.4457 71.9907 99.3567 72.8629 99.3567C74.091 99.3567 75.0522 99.4902 75.7464 99.7572C76.4406 100.024 77.0546 100.336 77.5886 100.692L76.7075 103.415C76.1024 103.112 75.4794 102.881 74.8386 102.721C74.2156 102.561 73.557 102.48 72.8629 102.48C71.6881 102.48 70.8782 102.845 70.4332 103.575C70.006 104.287 69.7924 105.231 69.7924 106.405C69.7924 107.74 70.0416 108.719 70.54 109.342C71.0384 109.947 71.8038 110.25 72.8362 110.25C73.4591 110.25 74.0999 110.188 74.7585 110.063C75.4171 109.921 76.0935 109.654 76.7876 109.262ZM88.6513 102.667H85.661V109.396C85.661 109.734 85.7322 109.965 85.8746 110.09C86.017 110.214 86.2128 110.277 86.462 110.277C86.6934 110.277 86.9514 110.232 87.2362 110.143C87.5388 110.054 87.8503 109.921 88.1707 109.743L89.0785 112.012C88.7225 112.368 88.1885 112.68 87.4765 112.947C86.7823 113.214 86.0704 113.347 85.3406 113.347C84.0234 113.347 83.1067 113.036 82.5906 112.413C82.0744 111.772 81.8163 110.891 81.8163 109.769V102.667H79.707V99.6237H81.8163V95.2717L85.661 94.5241V99.6237H88.6513V102.667ZM97.5263 110.277C97.7577 110.277 98.0158 110.232 98.3006 110.143C98.5854 110.054 98.888 109.921 99.2084 109.743L100.116 112.012C99.7601 112.368 99.2351 112.68 98.5409 112.947C97.8467 113.214 97.1347 113.347 96.4049 113.347C95.0878 113.347 94.1711 113.036 93.6549 112.413C93.1387 111.772 92.8806 110.891 92.8806 109.769V102.774H91.4923V99.8106H96.7787V109.396C96.7787 109.734 96.841 109.965 96.9656 110.09C97.0902 110.214 97.2771 110.277 97.5263 110.277ZM96.7787 97.5411H92.6136V93.7231H96.7787V97.5411ZM108.421 99.3567C110.45 99.3567 112.07 99.9174 113.28 101.039C114.49 102.16 115.096 103.922 115.096 106.325C115.096 108.621 114.517 110.366 113.36 111.558C112.221 112.751 110.575 113.347 108.421 113.347C106.249 113.347 104.585 112.751 103.428 111.558C102.289 110.366 101.719 108.621 101.719 106.325C101.719 103.922 102.325 102.16 103.535 101.039C104.763 99.9174 106.392 99.3567 108.421 99.3567ZM105.671 106.325C105.671 107.607 105.867 108.586 106.258 109.262C106.668 109.921 107.388 110.25 108.421 110.25C109.435 110.25 110.147 109.921 110.557 109.262C110.966 108.586 111.171 107.607 111.171 106.325C111.171 104.99 110.966 104.02 110.557 103.415C110.165 102.792 109.462 102.48 108.448 102.48C107.397 102.48 106.668 102.792 106.258 103.415C105.867 104.02 105.671 104.99 105.671 106.325ZM130.463 113H126.565V104.109C126.565 103.54 126.458 103.121 126.245 102.854C126.049 102.569 125.72 102.427 125.257 102.427C124.687 102.427 124.082 102.587 123.441 102.908C122.801 103.21 122.293 103.557 121.92 103.949V113H118.022V99.8106H121.599L121.813 100.745C122.293 100.371 122.845 100.051 123.468 99.7839C124.091 99.4991 124.857 99.3567 125.764 99.3567C127.331 99.3567 128.505 99.6949 129.289 100.371C130.072 101.048 130.463 102.071 130.463 103.442V113ZM141.129 97.7013C141.129 96.3308 141.432 95.3785 142.037 94.8445C142.66 94.2927 143.656 94.0168 145.027 94.0168H148.364C150.981 94.0168 152.805 94.5419 153.838 95.5921C154.888 96.6245 155.413 98.1552 155.413 100.184C155.413 102.498 154.835 104.109 153.678 105.017C152.521 105.925 150.741 106.379 148.338 106.379H145.08V113H141.129V97.7013ZM148.017 97.0605H146.362C145.846 97.0605 145.499 97.1673 145.321 97.3809C145.161 97.5767 145.08 97.8793 145.08 98.2887V103.308H147.964C149.103 103.308 149.957 103.068 150.527 102.587C151.097 102.107 151.381 101.306 151.381 100.184C151.381 99.0452 151.097 98.2442 150.527 97.7814C149.975 97.3008 149.139 97.0605 148.017 97.0605ZM164.505 99.3567C166.534 99.3567 168.154 99.9174 169.364 101.039C170.575 102.16 171.18 103.922 171.18 106.325C171.18 108.621 170.601 110.366 169.444 111.558C168.305 112.751 166.659 113.347 164.505 113.347C162.333 113.347 160.669 112.751 159.512 111.558C158.373 110.366 157.803 108.621 157.803 106.325C157.803 103.922 158.409 102.16 159.619 101.039C160.847 99.9174 162.476 99.3567 164.505 99.3567ZM161.755 106.325C161.755 107.607 161.951 108.586 162.342 109.262C162.752 109.921 163.473 110.25 164.505 110.25C165.52 110.25 166.231 109.921 166.641 109.262C167.05 108.586 167.255 107.607 167.255 106.325C167.255 104.99 167.05 104.02 166.641 103.415C166.249 102.792 165.546 102.48 164.532 102.48C163.481 102.48 162.752 102.792 162.342 103.415C161.951 104.02 161.755 104.99 161.755 106.325ZM179.606 110.277C179.837 110.277 180.095 110.232 180.38 110.143C180.665 110.054 180.967 109.921 181.288 109.743L182.196 112.012C181.84 112.368 181.314 112.68 180.62 112.947C179.926 113.214 179.214 113.347 178.484 113.347C177.167 113.347 176.25 113.036 175.734 112.413C175.218 111.772 174.96 110.891 174.96 109.769V102.774H173.572V99.8106H178.858V109.396C178.858 109.734 178.92 109.965 179.045 110.09C179.17 110.214 179.356 110.277 179.606 110.277ZM178.858 97.5411H174.693V93.7231H178.858V97.5411ZM196.508 113H192.609V104.109C192.609 103.54 192.503 103.121 192.289 102.854C192.093 102.569 191.764 102.427 191.301 102.427C190.732 102.427 190.126 102.587 189.486 102.908C188.845 103.21 188.338 103.557 187.964 103.949V113H184.066V99.8106H187.643L187.857 100.745C188.338 100.371 188.889 100.051 189.512 99.7839C190.135 99.4991 190.901 99.3567 191.808 99.3567C193.375 99.3567 194.55 99.6949 195.333 100.371C196.116 101.048 196.508 102.071 196.508 103.442V113ZM208.12 102.667H205.13V109.396C205.13 109.734 205.201 109.965 205.343 110.09C205.486 110.214 205.682 110.277 205.931 110.277C206.162 110.277 206.42 110.232 206.705 110.143C207.008 110.054 207.319 109.921 207.639 109.743L208.547 112.012C208.191 112.368 207.657 112.68 206.945 112.947C206.251 113.214 205.539 113.347 204.809 113.347C203.492 113.347 202.576 113.036 202.059 112.413C201.543 111.772 201.285 110.891 201.285 109.769V102.667H199.176V99.6237H201.285V95.2717L205.13 94.5241V99.6237H208.12V102.667Z" fill="#18181B"/>
<path d="M57.739 94.0168L58.1273 93.883L58.0319 93.6061H57.739V94.0168ZM64.2803 113V113.411H64.8563L64.6686 112.866L64.2803 113ZM60.3288 113L59.9389 113.129L60.0321 113.411H60.3288V113ZM58.9938 108.968L59.3838 108.839L59.2905 108.558H58.9938V108.968ZM51.7583 108.968V108.558H51.4635L51.3692 108.837L51.7583 108.968ZM50.3967 113V113.411H50.6915L50.7858 113.131L50.3967 113ZM46.4185 113L46.0313 112.863L45.8371 113.411H46.4185V113ZM53.1467 94.0168V93.6061H52.8565L52.7595 93.8796L53.1467 94.0168ZM52.586 106.218L52.1941 106.095L52.0265 106.629H52.586V106.218ZM58.1128 106.218V106.629H58.6739L58.5043 106.094L58.1128 106.218ZM55.336 97.461L55.7276 97.3369L55.3341 96.096L54.9441 97.338L55.336 97.461ZM57.739 94.0168L57.3506 94.1506L63.8919 113.134L64.2803 113L64.6686 112.866L58.1273 93.883L57.739 94.0168ZM64.2803 113V112.589H60.3288V113V113.411H64.2803V113ZM60.3288 113L60.7187 112.871L59.3838 108.839L58.9938 108.968L58.6039 109.098L59.9389 113.129L60.3288 113ZM58.9938 108.968V108.558H51.7583V108.968V109.379H58.9938V108.968ZM51.7583 108.968L51.3692 108.837L50.0075 112.869L50.3967 113L50.7858 113.131L52.1475 109.1L51.7583 108.968ZM50.3967 113V112.589H46.4185V113V113.411H50.3967V113ZM46.4185 113L46.8056 113.137L53.5339 94.154L53.1467 94.0168L52.7595 93.8796L46.0313 112.863L46.4185 113ZM53.1467 94.0168V94.4276H57.739V94.0168V93.6061H53.1467V94.0168ZM52.586 106.218V106.629H58.1128V106.218V105.808H52.586V106.218ZM58.1128 106.218L58.5043 106.094L55.7276 97.3369L55.336 97.461L54.9445 97.5852L57.7212 106.343L58.1128 106.218ZM55.336 97.461L54.9441 97.338L52.1941 106.095L52.586 106.218L52.9779 106.341L55.7279 97.5841L55.336 97.461ZM76.7876 109.262L77.1769 109.131L77.0185 108.66L76.5858 108.904L76.7876 109.262ZM77.6954 111.959L77.9573 112.275L78.1748 112.095L78.0847 111.828L77.6954 111.959ZM75.693 112.973L75.8126 113.366L75.693 112.973ZM67.6832 111.772L67.4091 112.078L67.414 112.082L67.6832 111.772ZM66.4817 102.587L66.1127 102.407L66.1097 102.413L66.4817 102.587ZM68.0837 100.612L68.3258 100.943L68.3301 100.94L68.0837 100.612ZM70.2997 99.6237L70.2142 99.2219L70.2997 99.6237ZM75.7464 99.7572L75.5989 100.141L75.7464 99.7572ZM77.5886 100.692L77.9794 100.818L78.0751 100.522L77.8165 100.35L77.5886 100.692ZM76.7075 103.415L76.5239 103.782L76.9513 103.996L77.0984 103.541L76.7075 103.415ZM74.8386 102.721L74.7363 103.119L74.739 103.119L74.8386 102.721ZM70.4332 103.575L70.0825 103.361L70.081 103.364L70.4332 103.575ZM70.54 109.342L70.2192 109.599L70.2229 109.603L70.54 109.342ZM74.7585 110.063L74.8349 110.467L74.8453 110.465L74.7585 110.063ZM76.7876 109.262L76.3984 109.393L77.3061 112.09L77.6954 111.959L78.0847 111.828L77.1769 109.131L76.7876 109.262ZM77.6954 111.959L77.4335 111.642C76.9691 112.027 76.354 112.343 75.5734 112.58L75.693 112.973L75.8126 113.366C76.6695 113.105 77.3894 112.745 77.9573 112.275L77.6954 111.959ZM75.693 112.973L75.5734 112.58C74.8022 112.815 73.8917 112.936 72.8362 112.936V113.347V113.758C73.9521 113.758 74.9462 113.63 75.8126 113.366L75.693 112.973ZM72.8362 113.347V112.936C70.6718 112.936 69.0635 112.426 67.9524 111.462L67.6832 111.772L67.414 112.082C68.7237 113.218 70.5506 113.758 72.8362 113.758V113.347ZM67.6832 111.772L67.9572 111.466C66.8782 110.5 66.3051 109.026 66.3051 106.966H65.8943H65.4836C65.4836 109.178 66.1031 110.908 67.4092 112.078L67.6832 111.772ZM65.8943 106.966H66.3051V105.818H65.8943H65.4836V106.966H65.8943ZM65.8943 105.818H66.3051C66.3051 104.537 66.4961 103.525 66.8537 102.761L66.4817 102.587L66.1097 102.413C65.6841 103.322 65.4836 104.464 65.4836 105.818H65.8943ZM66.4817 102.587L66.8507 102.768C67.2349 101.983 67.7284 101.379 68.3258 100.943L68.0837 100.612L67.8416 100.28C67.1218 100.805 66.5473 101.519 66.1128 102.407L66.4817 102.587ZM68.0837 100.612L68.3301 100.94C68.92 100.498 69.6029 100.192 70.3852 100.025L70.2997 99.6237L70.2142 99.2219C69.3234 99.4115 68.5289 99.7642 67.8372 100.283L68.0837 100.612ZM70.2997 99.6237L70.3852 100.025C71.1931 99.8535 72.0188 99.7674 72.8629 99.7674V99.3567V98.9459C71.9625 98.9459 71.0795 99.0378 70.2142 99.2219L70.2997 99.6237ZM72.8629 99.3567V99.7674C74.0691 99.7674 74.9726 99.8996 75.5989 100.141L75.7464 99.7572L75.8938 99.3738C75.1318 99.0807 74.1129 98.9459 72.8629 98.9459V99.3567ZM75.7464 99.7572L75.5989 100.141C76.2692 100.398 76.8556 100.697 77.3608 101.033L77.5886 100.692L77.8165 100.35C77.2537 99.9747 76.6119 99.65 75.8938 99.3738L75.7464 99.7572ZM77.5886 100.692L77.1978 100.565L76.3167 103.289L76.7075 103.415L77.0984 103.541L77.9794 100.818L77.5886 100.692ZM76.7075 103.415L76.8912 103.048C76.2599 102.732 75.6088 102.49 74.9382 102.322L74.8386 102.721L74.739 103.119C75.35 103.272 75.9448 103.493 76.5239 103.782L76.7075 103.415ZM74.8386 102.721L74.9409 102.323C74.282 102.154 73.5888 102.07 72.8629 102.07V102.48V102.891C73.5252 102.891 74.1493 102.968 74.7363 103.119L74.8386 102.721ZM72.8629 102.48V102.07C71.6046 102.07 70.6286 102.466 70.0825 103.361L70.4332 103.575L70.7839 103.789C71.1278 103.225 71.7716 102.891 72.8629 102.891V102.48ZM70.4332 103.575L70.081 103.364C69.6028 104.161 69.3817 105.185 69.3817 106.405H69.7924H70.2032C70.2032 105.276 70.4093 104.413 70.7854 103.786L70.4332 103.575ZM69.7924 106.405H69.3817C69.3817 107.776 69.6347 108.868 70.2193 109.599L70.54 109.342L70.8608 109.086C70.4485 108.57 70.2032 107.704 70.2032 106.405H69.7924ZM70.54 109.342L70.2229 109.603C70.8225 110.331 71.7227 110.661 72.8362 110.661V110.25V109.839C71.8849 109.839 71.2544 109.563 70.8571 109.081L70.54 109.342ZM72.8362 110.25V110.661C73.4866 110.661 74.153 110.596 74.8349 110.467L74.7585 110.063L74.6821 109.659C74.0469 109.78 73.4317 109.839 72.8362 109.839V110.25ZM74.7585 110.063L74.8453 110.465C75.5508 110.312 76.2657 110.028 76.9895 109.62L76.7876 109.262L76.5858 108.904C75.9212 109.279 75.2834 109.529 74.6717 109.662L74.7585 110.063ZM88.6513 102.667V103.078H89.0621V102.667H88.6513ZM85.661 102.667V102.257H85.2502V102.667H85.661ZM85.8746 110.09L86.1451 109.781H86.1451L85.8746 110.09ZM87.2362 110.143L87.1203 109.749L87.1137 109.751L87.2362 110.143ZM88.1707 109.743L88.5521 109.59L88.3789 109.157L87.9712 109.384L88.1707 109.743ZM89.0785 112.012L89.3689 112.303L89.5605 112.111L89.4599 111.86L89.0785 112.012ZM87.4765 112.947L87.3323 112.562L87.3291 112.563L87.4765 112.947ZM82.5906 112.413L82.2707 112.67L82.2743 112.675L82.5906 112.413ZM81.8163 102.667H82.227V102.257H81.8163V102.667ZM79.707 102.667H79.2963V103.078H79.707V102.667ZM79.707 99.6237V99.2129H79.2963V99.6237H79.707ZM81.8163 99.6237V100.034H82.227V99.6237H81.8163ZM81.8163 95.2717L81.7379 94.8685L81.4055 94.9331V95.2717H81.8163ZM85.661 94.5241H86.0717V94.0258L85.5826 94.1209L85.661 94.5241ZM85.661 99.6237H85.2502V100.034H85.661V99.6237ZM88.6513 99.6237H89.0621V99.2129H88.6513V99.6237ZM88.6513 102.667V102.257H85.661V102.667V103.078H88.6513V102.667ZM85.661 102.667H85.2502V109.396H85.661H86.0717V102.667H85.661ZM85.661 109.396H85.2502C85.2502 109.765 85.3231 110.153 85.6041 110.399L85.8746 110.09L86.1451 109.781C86.1413 109.777 86.0717 109.703 86.0717 109.396H85.661ZM85.8746 110.09L85.6041 110.399C85.8424 110.607 86.1454 110.687 86.462 110.687V110.277V109.866C86.2802 109.866 86.1915 109.821 86.1451 109.781L85.8746 110.09ZM86.462 110.277V110.687C86.7449 110.687 87.0452 110.633 87.3588 110.535L87.2362 110.143L87.1137 109.751C86.8577 109.831 86.6418 109.866 86.462 109.866V110.277ZM87.2362 110.143L87.3521 110.537C87.688 110.438 88.0275 110.292 88.3702 110.102L88.1707 109.743L87.9712 109.384C87.6732 109.549 87.3896 109.67 87.1203 109.749L87.2362 110.143ZM88.1707 109.743L87.7893 109.895L88.6971 112.165L89.0785 112.012L89.4599 111.86L88.5521 109.59L88.1707 109.743ZM89.0785 112.012L88.788 111.722C88.4892 112.021 88.0148 112.306 87.3323 112.562L87.4765 112.947L87.6208 113.331C88.3622 113.053 88.9558 112.716 89.3689 112.303L89.0785 112.012ZM87.4765 112.947L87.3291 112.563C86.681 112.812 86.019 112.936 85.3406 112.936V113.347V113.758C86.1218 113.758 86.8837 113.615 87.624 113.33L87.4765 112.947ZM85.3406 113.347V112.936C84.0701 112.936 83.307 112.634 82.9069 112.151L82.5906 112.413L82.2743 112.675C82.9065 113.438 83.9767 113.758 85.3406 113.758V113.347ZM82.5906 112.413L82.9104 112.155C82.4713 111.61 82.227 110.831 82.227 109.769H81.8163H81.4055C81.4055 110.951 81.6775 111.934 82.2707 112.67L82.5906 112.413ZM81.8163 109.769H82.227V102.667H81.8163H81.4055V109.769H81.8163ZM81.8163 102.667V102.257H79.707V102.667V103.078H81.8163V102.667ZM79.707 102.667H80.1178V99.6237H79.707H79.2963V102.667H79.707ZM79.707 99.6237V100.034H81.8163V99.6237V99.2129H79.707V99.6237ZM81.8163 99.6237H82.227V95.2717H81.8163H81.4055V99.6237H81.8163ZM81.8163 95.2717L81.8947 95.6749L85.7394 94.9273L85.661 94.5241L85.5826 94.1209L81.7379 94.8685L81.8163 95.2717ZM85.661 94.5241H85.2502V99.6237H85.661H86.0717V94.5241H85.661ZM85.661 99.6237V100.034H88.6513V99.6237V99.2129H85.661V99.6237ZM88.6513 99.6237H88.2405V102.667H88.6513H89.0621V99.6237H88.6513ZM98.3006 110.143L98.1781 109.751L98.3006 110.143ZM99.2084 109.743L99.5897 109.59L99.4165 109.157L99.0089 109.384L99.2084 109.743ZM100.116 112.012L100.407 112.303L100.598 112.111L100.498 111.86L100.116 112.012ZM98.5409 112.947L98.6883 113.33L98.5409 112.947ZM93.6549 112.413L93.335 112.67L93.3386 112.675L93.6549 112.413ZM92.8806 102.774H93.2914V102.363H92.8806V102.774ZM91.4923 102.774H91.0815V103.185H91.4923V102.774ZM91.4923 99.8106V99.3998H91.0815V99.8106H91.4923ZM96.7787 99.8106H97.1895V99.3998H96.7787V99.8106ZM96.7787 97.5411V97.9519H97.1895V97.5411H96.7787ZM92.6136 97.5411H92.2029V97.9519H92.6136V97.5411ZM92.6136 93.7231V93.3124H92.2029V93.7231H92.6136ZM96.7787 93.7231H97.1895V93.3124H96.7787V93.7231ZM97.5263 110.277V110.687C97.8093 110.687 98.1095 110.633 98.4231 110.535L98.3006 110.143L98.1781 109.751C97.9221 109.831 97.7061 109.866 97.5263 109.866V110.277ZM98.3006 110.143L98.4231 110.535C98.7398 110.436 99.0683 110.29 99.4078 110.102L99.2084 109.743L99.0089 109.384C98.7076 109.551 98.4309 109.672 98.1781 109.751L98.3006 110.143ZM99.2084 109.743L98.827 109.895L99.7347 112.165L100.116 112.012L100.498 111.86L99.5897 109.59L99.2084 109.743ZM100.116 112.012L99.8257 111.722C99.5249 112.022 99.0574 112.308 98.3934 112.563L98.5409 112.947L98.6883 113.33C99.4127 113.051 99.9953 112.714 100.407 112.303L100.116 112.012ZM98.5409 112.947L98.3934 112.563C97.7454 112.812 97.0833 112.936 96.4049 112.936V113.347V113.758C97.1861 113.758 97.948 113.615 98.6883 113.33L98.5409 112.947ZM96.4049 113.347V112.936C95.1345 112.936 94.3714 112.634 93.9712 112.151L93.6549 112.413L93.3386 112.675C93.9708 113.438 95.0411 113.758 96.4049 113.758V113.347ZM93.6549 112.413L93.9748 112.155C93.5356 111.61 93.2914 110.831 93.2914 109.769H92.8806H92.4699C92.4699 110.951 92.7418 111.934 93.335 112.67L93.6549 112.413ZM92.8806 109.769H93.2914V102.774H92.8806H92.4699V109.769H92.8806ZM92.8806 102.774V102.363H91.4923V102.774V103.185H92.8806V102.774ZM91.4923 102.774H91.903V99.8106H91.4923H91.0815V102.774H91.4923ZM91.4923 99.8106V100.221H96.7787V99.8106V99.3998H91.4923V99.8106ZM96.7787 99.8106H96.368V109.396H96.7787H97.1895V99.8106H96.7787ZM96.7787 109.396H96.368C96.368 109.754 96.4278 110.133 96.6752 110.38L96.9656 110.09L97.2561 109.799C97.2597 109.803 97.241 109.786 97.2221 109.716C97.2033 109.646 97.1895 109.542 97.1895 109.396H96.7787ZM96.9656 110.09L96.6752 110.38C96.904 110.609 97.2138 110.687 97.5263 110.687V110.277V109.866C97.3404 109.866 97.2765 109.82 97.2561 109.799L96.9656 110.09ZM96.7787 97.5411V97.1304H92.6136V97.5411V97.9519H96.7787V97.5411ZM92.6136 97.5411H93.0244V93.7231H92.6136H92.2029V97.5411H92.6136ZM92.6136 93.7231V94.1339H96.7787V93.7231V93.3124H92.6136V93.7231ZM96.7787 93.7231H96.368V97.5411H96.7787H97.1895V93.7231H96.7787ZM113.28 101.039L113.001 101.34L113.28 101.039ZM113.36 111.558L113.065 111.272L113.063 111.275L113.36 111.558ZM103.428 111.558L103.131 111.842L103.133 111.844L103.428 111.558ZM103.535 101.039L103.258 100.735L103.256 100.737L103.535 101.039ZM106.258 109.262L105.903 109.468L105.909 109.479L106.258 109.262ZM110.557 109.262L110.906 109.479L110.908 109.475L110.557 109.262ZM110.557 103.415L110.209 103.634L110.217 103.645L110.557 103.415ZM106.258 103.415L105.915 103.189L105.913 103.192L106.258 103.415ZM108.421 99.3567V99.7674C110.371 99.7674 111.883 100.304 113.001 101.34L113.28 101.039L113.559 100.737C112.256 99.5304 110.529 98.9459 108.421 98.9459V99.3567ZM113.28 101.039L113.001 101.34C114.095 102.354 114.685 103.984 114.685 106.325H115.096H115.506C115.506 103.861 114.886 101.966 113.559 100.737L113.28 101.039ZM115.096 106.325H114.685C114.685 108.556 114.123 110.182 113.065 111.272L113.36 111.558L113.655 111.844C114.911 110.55 115.506 108.687 115.506 106.325H115.096ZM113.36 111.558L113.063 111.275C112.023 112.363 110.498 112.936 108.421 112.936V113.347V113.758C110.651 113.758 112.419 113.138 113.657 111.842L113.36 111.558ZM108.421 113.347V112.936C106.325 112.936 104.781 112.363 103.723 111.272L103.428 111.558L103.133 111.844C104.389 113.139 106.174 113.758 108.421 113.758V113.347ZM103.428 111.558L103.725 111.275C102.683 110.184 102.13 108.558 102.13 106.325H101.719H101.309C101.309 108.685 101.894 110.547 103.131 111.842L103.428 111.558ZM101.719 106.325H102.13C102.13 103.984 102.72 102.354 103.814 101.34L103.535 101.039L103.256 100.737C101.929 101.966 101.309 103.861 101.309 106.325H101.719ZM103.535 101.039L103.812 101.342C104.948 100.304 106.471 99.7674 108.421 99.7674V99.3567V98.9459C106.313 98.9459 104.578 99.5305 103.258 100.735L103.535 101.039ZM105.671 106.325H105.26C105.26 107.638 105.459 108.701 105.903 109.468L106.258 109.262L106.614 109.056C106.275 108.47 106.082 107.576 106.082 106.325H105.671ZM106.258 109.262L105.909 109.479C106.418 110.297 107.299 110.661 108.421 110.661V110.25V109.839C107.478 109.839 106.917 109.544 106.607 109.045L106.258 109.262ZM108.421 110.25V110.661C109.528 110.661 110.398 110.295 110.906 109.479L110.557 109.262L110.208 109.045C109.896 109.546 109.343 109.839 108.421 109.839V110.25ZM110.557 109.262L110.908 109.475C111.374 108.706 111.582 107.64 111.582 106.325H111.171H110.76C110.76 107.574 110.559 108.465 110.205 109.049L110.557 109.262ZM111.171 106.325H111.582C111.582 104.967 111.377 103.894 110.897 103.185L110.557 103.415L110.217 103.645C110.556 104.146 110.76 105.014 110.76 106.325H111.171ZM110.557 103.415L110.905 103.196C110.411 102.411 109.544 102.07 108.448 102.07V102.48V102.891C109.38 102.891 109.919 103.173 110.209 103.634L110.557 103.415ZM108.448 102.48V102.07C107.321 102.07 106.429 102.407 105.915 103.189L106.258 103.415L106.601 103.641C106.906 103.177 107.474 102.891 108.448 102.891V102.48ZM106.258 103.415L105.913 103.192C105.456 103.899 105.26 104.969 105.26 106.325H105.671H106.082C106.082 105.012 106.278 104.141 106.603 103.638L106.258 103.415ZM130.463 113V113.411H130.874V113H130.463ZM126.565 113H126.155V113.411H126.565V113ZM126.245 102.854L125.906 103.087L125.915 103.099L125.924 103.111L126.245 102.854ZM123.441 102.908L123.617 103.279L123.625 103.275L123.441 102.908ZM121.92 103.949L121.622 103.665L121.509 103.784V103.949H121.92ZM121.92 113V113.411H122.33V113H121.92ZM118.022 113H117.611V113.411H118.022V113ZM118.022 99.8106V99.3998H117.611V99.8106H118.022ZM121.599 99.8106L122 99.719L121.927 99.3998H121.599V99.8106ZM121.813 100.745L121.412 100.837L121.556 101.465L122.065 101.069L121.813 100.745ZM123.468 99.7839L123.63 100.162L123.639 100.157L123.468 99.7839ZM129.289 100.371L129.02 100.682L129.289 100.371ZM130.463 113V112.589H126.565V113V113.411H130.463V113ZM126.565 113H126.976V104.109H126.565H126.155V113H126.565ZM126.565 104.109H126.976C126.976 103.503 126.865 102.972 126.566 102.598L126.245 102.854L125.924 103.111C126.052 103.27 126.155 103.576 126.155 104.109H126.565ZM126.245 102.854L126.583 102.622C126.286 102.189 125.805 102.016 125.257 102.016V102.427V102.838C125.635 102.838 125.812 102.95 125.906 103.087L126.245 102.854ZM125.257 102.427V102.016C124.609 102.016 123.941 102.199 123.258 102.54L123.441 102.908L123.625 103.275C124.223 102.976 124.766 102.838 125.257 102.838V102.427ZM123.441 102.908L123.266 102.536C122.593 102.854 122.04 103.228 121.622 103.665L121.92 103.949L122.217 104.233C122.547 103.887 123.008 103.566 123.617 103.279L123.441 102.908ZM121.92 103.949H121.509V113H121.92H122.33V103.949H121.92ZM121.92 113V112.589H118.022V113V113.411H121.92V113ZM118.022 113H118.432V99.8106H118.022H117.611V113H118.022ZM118.022 99.8106V100.221H121.599V99.8106V99.3998H118.022V99.8106ZM121.599 99.8106L121.199 99.9021L121.412 100.837L121.813 100.745L122.213 100.654L122 99.719L121.599 99.8106ZM121.813 100.745L122.065 101.069C122.515 100.719 123.036 100.416 123.63 100.161L123.468 99.7839L123.306 99.4063C122.655 99.6856 122.072 100.023 121.561 100.421L121.813 100.745ZM123.468 99.7839L123.639 100.157C124.194 99.9037 124.897 99.7674 125.764 99.7674V99.3567V98.9459C124.816 98.9459 123.988 99.0944 123.297 99.4103L123.468 99.7839ZM125.764 99.3567V99.7674C127.281 99.7674 128.342 100.096 129.02 100.682L129.289 100.371L129.557 100.06C128.669 99.2936 127.38 98.9459 125.764 98.9459V99.3567ZM129.289 100.371L129.02 100.682C129.686 101.257 130.053 102.149 130.053 103.442H130.463H130.874C130.874 101.993 130.458 100.838 129.557 100.06L129.289 100.371ZM130.463 103.442H130.053V113H130.463H130.874V103.442H130.463ZM142.037 94.8445L142.308 95.1525L142.309 95.152L142.037 94.8445ZM153.838 95.5921L153.545 95.8801L153.55 95.885L153.838 95.5921ZM153.678 105.017L153.424 104.694L153.678 105.017ZM145.08 106.379V105.968H144.67V106.379H145.08ZM145.08 113V113.411H145.491V113H145.08ZM141.129 113H140.718V113.411H141.129V113ZM145.321 97.3809L145.005 97.118L145.003 97.1208L145.321 97.3809ZM145.08 103.308H144.67V103.719H145.08V103.308ZM150.527 97.7814L150.257 98.0913L150.268 98.1002L150.527 97.7814ZM141.129 97.7013H141.54C141.54 96.3699 141.837 95.5684 142.308 95.1525L142.037 94.8445L141.765 94.5365C141.026 95.1886 140.718 96.2916 140.718 97.7013H141.129ZM142.037 94.8445L142.309 95.152C142.821 94.6982 143.696 94.4276 145.027 94.4276V94.0168V93.6061C143.617 93.6061 142.498 93.8872 141.764 94.537L142.037 94.8445ZM145.027 94.0168V94.4276H148.364V94.0168V93.6061H145.027V94.0168ZM148.364 94.0168V94.4276C150.95 94.4276 152.631 94.9509 153.545 95.88L153.838 95.5921L154.131 95.3041C152.979 94.1329 151.012 93.6061 148.364 93.6061V94.0168ZM153.838 95.5921L153.55 95.885C154.496 96.8147 155.002 98.2228 155.002 100.184H155.413H155.824C155.824 98.0877 155.28 96.4342 154.126 95.2992L153.838 95.5921ZM155.413 100.184H155.002C155.002 102.445 154.436 103.9 153.424 104.694L153.678 105.017L153.931 105.34C155.233 104.318 155.824 102.552 155.824 100.184H155.413ZM153.678 105.017L153.424 104.694C152.373 105.519 150.702 105.968 148.338 105.968V106.379V106.789C150.779 106.789 152.669 106.331 153.931 105.34L153.678 105.017ZM148.338 106.379V105.968H145.08V106.379V106.789H148.338V106.379ZM145.08 106.379H144.67V113H145.08H145.491V106.379H145.08ZM145.08 113V112.589H141.129V113V113.411H145.08V113ZM141.129 113H141.54V97.7013H141.129H140.718V113H141.129ZM148.017 97.0605V96.6498H146.362V97.0605V97.4713H148.017V97.0605ZM146.362 97.0605V96.6498C145.821 96.6498 145.307 96.7557 145.005 97.118L145.321 97.3809L145.636 97.6439C145.69 97.5789 145.871 97.4713 146.362 97.4713V97.0605ZM145.321 97.3809L145.003 97.1208C144.755 97.4234 144.67 97.8391 144.67 98.2887H145.08H145.491C145.491 97.9195 145.566 97.7301 145.639 97.641L145.321 97.3809ZM145.08 98.2887H144.67V103.308H145.08H145.491V98.2887H145.08ZM145.08 103.308V103.719H147.964V103.308V102.897H145.08V103.308ZM147.964 103.308V103.719C149.151 103.719 150.118 103.47 150.792 102.901L150.527 102.587L150.262 102.273C149.797 102.666 149.055 102.897 147.964 102.897V103.308ZM150.527 102.587L150.792 102.901C151.493 102.31 151.792 101.365 151.792 100.184H151.381H150.971C150.971 101.247 150.701 101.903 150.262 102.273L150.527 102.587ZM151.381 100.184H151.792C151.792 98.9903 151.495 98.0384 150.786 97.4626L150.527 97.7814L150.268 98.1002C150.699 98.45 150.971 99.1 150.971 100.184H151.381ZM150.527 97.7814L150.797 97.4717C150.139 96.899 149.187 96.6498 148.017 96.6498V97.0605V97.4713C149.09 97.4713 149.811 97.7027 150.257 98.0912L150.527 97.7814ZM169.364 101.039L169.085 101.34L169.364 101.039ZM169.444 111.558L169.149 111.272L169.147 111.275L169.444 111.558ZM159.512 111.558L159.215 111.842L159.217 111.844L159.512 111.558ZM159.619 101.039L159.342 100.735L159.34 100.737L159.619 101.039ZM162.342 109.262L161.987 109.468L161.993 109.479L162.342 109.262ZM166.641 109.262L166.99 109.479L166.992 109.475L166.641 109.262ZM166.641 103.415L166.293 103.634L166.301 103.645L166.641 103.415ZM162.342 103.415L161.999 103.189L161.997 103.192L162.342 103.415ZM164.505 99.3567V99.7674C166.456 99.7674 167.967 100.304 169.085 101.34L169.364 101.039L169.643 100.737C168.341 99.5304 166.613 98.9459 164.505 98.9459V99.3567ZM169.364 101.039L169.085 101.34C170.179 102.354 170.769 103.984 170.769 106.325H171.18H171.591C171.591 103.861 170.97 101.966 169.643 100.737L169.364 101.039ZM171.18 106.325H170.769C170.769 108.556 170.208 110.182 169.149 111.272L169.444 111.558L169.739 111.844C170.995 110.55 171.591 108.687 171.591 106.325H171.18ZM169.444 111.558L169.147 111.275C168.107 112.363 166.582 112.936 164.505 112.936V113.347V113.758C166.735 113.758 168.503 113.138 169.741 111.842L169.444 111.558ZM164.505 113.347V112.936C162.409 112.936 160.865 112.363 159.807 111.272L159.512 111.558L159.217 111.844C160.473 113.139 162.258 113.758 164.505 113.758V113.347ZM159.512 111.558L159.809 111.275C158.768 110.184 158.214 108.558 158.214 106.325H157.803H157.393C157.393 108.685 157.978 110.547 159.215 111.842L159.512 111.558ZM157.803 106.325H158.214C158.214 103.984 158.804 102.354 159.898 101.34L159.619 101.039L159.34 100.737C158.013 101.966 157.393 103.861 157.393 106.325H157.803ZM159.619 101.039L159.896 101.342C161.033 100.304 162.555 99.7674 164.505 99.7674V99.3567V98.9459C162.397 98.9459 160.662 99.5305 159.342 100.735L159.619 101.039ZM161.755 106.325H161.344C161.344 107.638 161.543 108.701 161.987 109.468L162.342 109.262L162.698 109.056C162.359 108.47 162.166 107.576 162.166 106.325H161.755ZM162.342 109.262L161.993 109.479C162.502 110.297 163.383 110.661 164.505 110.661V110.25V109.839C163.562 109.839 163.001 109.544 162.691 109.045L162.342 109.262ZM164.505 110.25V110.661C165.612 110.661 166.483 110.295 166.99 109.479L166.641 109.262L166.292 109.045C165.98 109.546 165.427 109.839 164.505 109.839V110.25ZM166.641 109.262L166.992 109.475C167.458 108.706 167.666 107.64 167.666 106.325H167.255H166.844C166.844 107.574 166.643 108.465 166.289 109.049L166.641 109.262ZM167.255 106.325H167.666C167.666 104.967 167.461 103.894 166.981 103.185L166.641 103.415L166.301 103.645C166.64 104.146 166.844 105.014 166.844 106.325H167.255ZM166.641 103.415L166.989 103.196C166.495 102.411 165.628 102.07 164.532 102.07V102.48V102.891C165.464 102.891 166.004 103.173 166.293 103.634L166.641 103.415ZM164.532 102.48V102.07C163.405 102.07 162.513 102.407 161.999 103.189L162.342 103.415L162.686 103.641C162.991 103.177 163.558 102.891 164.532 102.891V102.48ZM162.342 103.415L161.997 103.192C161.54 103.899 161.344 104.969 161.344 106.325H161.755H162.166C162.166 105.012 162.362 104.141 162.687 103.638L162.342 103.415ZM180.38 110.143L180.257 109.751L180.38 110.143ZM181.288 109.743L181.669 109.59L181.496 109.157L181.088 109.384L181.288 109.743ZM182.195 112.012L182.486 112.303L182.677 112.111L182.577 111.86L182.195 112.012ZM180.62 112.947L180.768 113.33L180.62 112.947ZM175.734 112.413L175.414 112.67L175.418 112.675L175.734 112.413ZM174.96 102.774H175.371V102.363H174.96V102.774ZM173.572 102.774H173.161V103.185H173.572V102.774ZM173.572 99.8106V99.3998H173.161V99.8106H173.572ZM178.858 99.8106H179.269V99.3998H178.858V99.8106ZM178.858 97.5411V97.9519H179.269V97.5411H178.858ZM174.693 97.5411H174.282V97.9519H174.693V97.5411ZM174.693 93.7231V93.3124H174.282V93.7231H174.693ZM178.858 93.7231H179.269V93.3124H178.858V93.7231ZM179.606 110.277V110.687C179.889 110.687 180.189 110.633 180.502 110.535L180.38 110.143L180.257 109.751C180.001 109.831 179.786 109.866 179.606 109.866V110.277ZM180.38 110.143L180.502 110.535C180.819 110.436 181.148 110.29 181.487 110.102L181.288 109.743L181.088 109.384C180.787 109.551 180.51 109.672 180.257 109.751L180.38 110.143ZM181.288 109.743L180.906 109.895L181.814 112.165L182.195 112.012L182.577 111.86L181.669 109.59L181.288 109.743ZM182.195 112.012L181.905 111.722C181.604 112.022 181.137 112.308 180.473 112.563L180.62 112.947L180.768 113.33C181.492 113.051 182.075 112.714 182.486 112.303L182.195 112.012ZM180.62 112.947L180.473 112.563C179.825 112.812 179.163 112.936 178.484 112.936V113.347V113.758C179.265 113.758 180.027 113.615 180.768 113.33L180.62 112.947ZM178.484 113.347V112.936C177.214 112.936 176.451 112.634 176.051 112.151L175.734 112.413L175.418 112.675C176.05 113.438 177.12 113.758 178.484 113.758V113.347ZM175.734 112.413L176.054 112.155C175.615 111.61 175.371 110.831 175.371 109.769H174.96H174.549C174.549 110.951 174.821 111.934 175.414 112.67L175.734 112.413ZM174.96 109.769H175.371V102.774H174.96H174.549V109.769H174.96ZM174.96 102.774V102.363H173.572V102.774V103.185H174.96V102.774ZM173.572 102.774H173.982V99.8106H173.572H173.161V102.774H173.572ZM173.572 99.8106V100.221H178.858V99.8106V99.3998H173.572V99.8106ZM178.858 99.8106H178.447V109.396H178.858H179.269V99.8106H178.858ZM178.858 109.396H178.447C178.447 109.754 178.507 110.133 178.755 110.38L179.045 110.09L179.335 109.799C179.339 109.803 179.32 109.786 179.301 109.716C179.283 109.646 179.269 109.542 179.269 109.396H178.858ZM179.045 110.09L178.755 110.38C178.983 110.609 179.293 110.687 179.606 110.687V110.277V109.866C179.42 109.866 179.356 109.82 179.335 109.799L179.045 110.09ZM178.858 97.5411V97.1304H174.693V97.5411V97.9519H178.858V97.5411ZM174.693 97.5411H175.104V93.7231H174.693H174.282V97.5411H174.693ZM174.693 93.7231V94.1339H178.858V93.7231V93.3124H174.693V93.7231ZM178.858 93.7231H178.447V97.5411H178.858H179.269V93.7231H178.858ZM196.508 113V113.411H196.918V113H196.508ZM192.609 113H192.199V113.411H192.609V113ZM192.289 102.854L191.951 103.087L191.959 103.099L191.968 103.111L192.289 102.854ZM189.486 102.908L189.661 103.279L189.669 103.275L189.486 102.908ZM187.964 103.949L187.667 103.665L187.553 103.784V103.949H187.964ZM187.964 113V113.411H188.375V113H187.964ZM184.066 113H183.655V113.411H184.066V113ZM184.066 99.8106V99.3998H183.655V99.8106H184.066ZM187.643 99.8106L188.044 99.719L187.971 99.3998H187.643V99.8106ZM187.857 100.745L187.457 100.837L187.6 101.465L188.109 101.069L187.857 100.745ZM189.512 99.7839L189.674 100.162L189.683 100.157L189.512 99.7839ZM195.333 100.371L195.064 100.682L195.333 100.371ZM196.508 113V112.589H192.609V113V113.411H196.508V113ZM192.609 113H193.02V104.109H192.609H192.199V113H192.609ZM192.609 104.109H193.02C193.02 103.503 192.909 102.972 192.61 102.598L192.289 102.854L191.968 103.111C192.096 103.27 192.199 103.576 192.199 104.109H192.609ZM192.289 102.854L192.628 102.622C192.33 102.189 191.849 102.016 191.301 102.016V102.427V102.838C191.679 102.838 191.856 102.95 191.951 103.087L192.289 102.854ZM191.301 102.427V102.016C190.654 102.016 189.985 102.199 189.302 102.54L189.486 102.908L189.669 103.275C190.267 102.976 190.81 102.838 191.301 102.838V102.427ZM189.486 102.908L189.31 102.536C188.637 102.854 188.084 103.228 187.667 103.665L187.964 103.949L188.261 104.233C188.591 103.887 189.053 103.566 189.661 103.279L189.486 102.908ZM187.964 103.949H187.553V113H187.964H188.375V103.949H187.964ZM187.964 113V112.589H184.066V113V113.411H187.964V113ZM184.066 113H184.476V99.8106H184.066H183.655V113H184.066ZM184.066 99.8106V100.221H187.643V99.8106V99.3998H184.066V99.8106ZM187.643 99.8106L187.243 99.9021L187.457 100.837L187.857 100.745L188.257 100.654L188.044 99.719L187.643 99.8106ZM187.857 100.745L188.109 101.069C188.559 100.719 189.08 100.416 189.674 100.161L189.512 99.7839L189.351 99.4063C188.699 99.6856 188.116 100.023 187.605 100.421L187.857 100.745ZM189.512 99.7839L189.683 100.157C190.238 99.9037 190.941 99.7674 191.808 99.7674V99.3567V98.9459C190.86 98.9459 190.033 99.0944 189.342 99.4103L189.512 99.7839ZM191.808 99.3567V99.7674C193.325 99.7674 194.386 100.096 195.064 100.682L195.333 100.371L195.601 100.06C194.713 99.2936 193.425 98.9459 191.808 98.9459V99.3567ZM195.333 100.371L195.064 100.682C195.73 101.257 196.097 102.149 196.097 103.442H196.508H196.918C196.918 101.993 196.502 100.838 195.601 100.06L195.333 100.371ZM196.508 103.442H196.097V113H196.508H196.918V103.442H196.508ZM208.12 102.667V103.078H208.531V102.667H208.12ZM205.13 102.667V102.257H204.719V102.667H205.13ZM205.343 110.09L205.614 109.781L205.343 110.09ZM206.705 110.143L206.589 109.749L206.582 109.751L206.705 110.143ZM207.639 109.743L208.021 109.59L207.848 109.157L207.44 109.384L207.639 109.743ZM208.547 112.012L208.838 112.303L209.029 112.111L208.929 111.86L208.547 112.012ZM206.945 112.947L206.801 112.562L206.798 112.563L206.945 112.947ZM202.059 112.413L201.739 112.67L201.743 112.675L202.059 112.413ZM201.285 102.667H201.696V102.257H201.285V102.667ZM199.176 102.667H198.765V103.078H199.176V102.667ZM199.176 99.6237V99.2129H198.765V99.6237H199.176ZM201.285 99.6237V100.034H201.696V99.6237H201.285ZM201.285 95.2717L201.207 94.8685L200.874 94.9331V95.2717H201.285ZM205.13 94.5241H205.541V94.0258L205.051 94.1209L205.13 94.5241ZM205.13 99.6237H204.719V100.034H205.13V99.6237ZM208.12 99.6237H208.531V99.2129H208.12V99.6237ZM208.12 102.667V102.257H205.13V102.667V103.078H208.12V102.667ZM205.13 102.667H204.719V109.396H205.13H205.541V102.667H205.13ZM205.13 109.396H204.719C204.719 109.765 204.792 110.153 205.073 110.399L205.343 110.09L205.614 109.781C205.61 109.777 205.541 109.703 205.541 109.396H205.13ZM205.343 110.09L205.073 110.399C205.311 110.607 205.614 110.687 205.931 110.687V110.277V109.866C205.749 109.866 205.66 109.821 205.614 109.781L205.343 110.09ZM205.931 110.277V110.687C206.214 110.687 206.514 110.633 206.828 110.535L206.705 110.143L206.582 109.751C206.327 109.831 206.111 109.866 205.931 109.866V110.277ZM206.705 110.143L206.821 110.537C207.157 110.438 207.496 110.292 207.839 110.102L207.639 109.743L207.44 109.384C207.142 109.549 206.858 109.67 206.589 109.749L206.705 110.143ZM207.639 109.743L207.258 109.895L208.166 112.165L208.547 112.012L208.929 111.86L208.021 109.59L207.639 109.743ZM208.547 112.012L208.257 111.722C207.958 112.021 207.484 112.306 206.801 112.562L206.945 112.947L207.09 113.331C207.831 113.053 208.425 112.716 208.838 112.303L208.547 112.012ZM206.945 112.947L206.798 112.563C206.15 112.812 205.488 112.936 204.809 112.936V113.347V113.758C205.591 113.758 206.352 113.615 207.093 113.33L206.945 112.947ZM204.809 113.347V112.936C203.539 112.936 202.776 112.634 202.376 112.151L202.059 112.413L201.743 112.675C202.375 113.438 203.445 113.758 204.809 113.758V113.347ZM202.059 112.413L202.379 112.155C201.94 111.61 201.696 110.831 201.696 109.769H201.285H200.874C200.874 110.951 201.146 111.934 201.739 112.67L202.059 112.413ZM201.285 109.769H201.696V102.667H201.285H200.874V109.769H201.285ZM201.285 102.667V102.257H199.176V102.667V103.078H201.285V102.667ZM199.176 102.667H199.587V99.6237H199.176H198.765V102.667H199.176ZM199.176 99.6237V100.034H201.285V99.6237V99.2129H199.176V99.6237ZM201.285 99.6237H201.696V95.2717H201.285H200.874V99.6237H201.285ZM201.285 95.2717L201.363 95.6749L205.208 94.9273L205.13 94.5241L205.051 94.1209L201.207 94.8685L201.285 95.2717ZM205.13 94.5241H204.719V99.6237H205.13H205.541V94.5241H205.13ZM205.13 99.6237V100.034H208.12V99.6237V99.2129H205.13V99.6237ZM208.12 99.6237H207.709V102.667H208.12H208.531V99.6237H208.12Z" fill="#18181B" mask="url(#path-12-outside-1_1022_5830)"/>
</svg>
